<?xml version="1.0" encoding="UTF-8"?>
<svg xmlns="http://www.w3.org/2000/svg" xmlns:xlink="http://www.w3.org/1999/xlink" width="80pt" height="80pt" viewBox="0 0 80 80" version="1.1">
<g id="surface21">
<path style=" stroke:none;fill-rule:nonzero;fill:rgb(22.745098%,39.215686%,67.45098%);fill-opacity:1;" d="M 37 69.601562 L 39.300781 69.601562 L 39.300781 77.5 L 37 77.5 Z M 40.699219 69.601562 L 43 69.601562 L 43 77.5 L 40.699219 77.5 Z M 40.699219 69.601562 "/>
<path style=" stroke:none;fill-rule:nonzero;fill:rgb(22.745098%,39.215686%,67.45098%);fill-opacity:1;" d="M 24.203125 65.058594 L 26.195312 66.207031 L 22.246094 73.046875 L 20.253906 71.898438 Z M 24.203125 65.058594 "/>
<path style=" stroke:none;fill-rule:nonzero;fill:rgb(22.745098%,39.215686%,67.45098%);fill-opacity:1;" d="M 13.789062 53.804688 L 14.9375 55.796875 L 8.097656 59.746094 L 6.949219 57.753906 Z M 13.789062 53.804688 "/>
<path style=" stroke:none;fill-rule:nonzero;fill:rgb(22.745098%,39.215686%,67.45098%);fill-opacity:1;" d="M 10.398438 37 L 10.398438 39.300781 L 2.5 39.300781 L 2.5 37 Z M 10.398438 40.699219 L 10.398438 43 L 2.5 43 L 2.5 40.699219 Z M 10.398438 40.699219 "/>
<path style=" stroke:none;fill-rule:nonzero;fill:rgb(22.745098%,39.215686%,67.45098%);fill-opacity:1;" d="M 14.941406 24.203125 L 13.792969 26.195312 L 6.953125 22.246094 L 8.101562 20.253906 Z M 14.941406 24.203125 "/>
<path style=" stroke:none;fill-rule:nonzero;fill:rgb(22.745098%,39.215686%,67.45098%);fill-opacity:1;" d="M 26.195312 13.789062 L 24.203125 14.9375 L 20.253906 8.097656 L 22.246094 6.949219 Z M 26.195312 13.789062 "/>
<path style=" stroke:none;fill-rule:nonzero;fill:rgb(22.745098%,39.215686%,67.45098%);fill-opacity:1;" d="M 43 10.398438 L 40.699219 10.398438 L 40.699219 2.5 L 43 2.5 Z M 39.300781 10.398438 L 37 10.398438 L 37 2.5 L 39.300781 2.5 Z M 39.300781 10.398438 "/>
<path style=" stroke:none;fill-rule:nonzero;fill:rgb(22.745098%,39.215686%,67.45098%);fill-opacity:1;" d="M 55.796875 14.941406 L 53.804688 13.792969 L 57.753906 6.953125 L 59.746094 8.101562 Z M 55.796875 14.941406 "/>
<path style=" stroke:none;fill-rule:nonzero;fill:rgb(22.745098%,39.215686%,67.45098%);fill-opacity:1;" d="M 66.210938 26.195312 L 65.0625 24.203125 L 71.902344 20.253906 L 73.050781 22.246094 Z M 66.210938 26.195312 "/>
<path style=" stroke:none;fill-rule:nonzero;fill:rgb(22.745098%,39.215686%,67.45098%);fill-opacity:1;" d="M 69.601562 43 L 69.601562 40.699219 L 77.5 40.699219 L 77.5 43 Z M 69.601562 39.300781 L 69.601562 37 L 77.5 37 L 77.5 39.300781 Z M 69.601562 39.300781 "/>
<path style=" stroke:none;fill-rule:nonzero;fill:rgb(22.745098%,39.215686%,67.45098%);fill-opacity:1;" d="M 65.058594 55.796875 L 66.207031 53.804688 L 73.046875 57.753906 L 71.898438 59.746094 Z M 65.058594 55.796875 "/>
<path style=" stroke:none;fill-rule:nonzero;fill:rgb(22.745098%,39.215686%,67.45098%);fill-opacity:1;" d="M 53.804688 66.210938 L 55.796875 65.0625 L 59.746094 71.902344 L 57.753906 73.050781 Z M 53.804688 66.210938 "/>
</g>
</svg>
